# AST/ASF file generated using VICON BodyLanguage
# -----------------------------------------------
:version 1.10
:name VICON
:units
  mass 1.0
  length 0.45
  angle deg
:documentation
   .ast/.asf automatically generated from VICON data using
   VICON BodyBuilder and BodyLanguage model FoxedUp or BRILLIANT.MOD
:root
   order TX TY TZ RX RY RZ
   axis XYZ
   position 0 0 0  
   orientation 0 0 0 
:bonedata
  begin
     id 1 
     name lhipjoint
     direction 0.560651 -0.75055 0.34978 
     length 2.44936 
     axis 0 0 0  XYZ
  end
  begin
     id 2 
     name lfemur
     direction 0.34202 -0.939693 0  
     length 7.42139  
     axis 0 0 20  XYZ
    dof rx ry rz
    limits (-160.0 20.0)
           (-70.0 70.0)
           (-60.0 70.0)
  end
  begin
     id 3 
     name ltibia
     direction 0.34202 -0.939693 0   
     length 7.75674   
     axis 0 0 20   XYZ
    dof rx
    limits (-10.0 170.0)
  end
  begin
     id 4 
     name lfoot
     direction 0.0925879 -0.254383 0.962661   
     length 2.38688   
     axis -90 7.62852e-016 20   XYZ
    dof rx rz
    limits (-45.0 90.0)
           (-70.0 20.0)
  end
  begin
     id 5 
     name ltoes
     direction 1.53567e-011 -4.21973e-011 1   
     length 1.19228   
     axis -90 7.62852e-016 20   XYZ
    dof rx
    limits (-90.0 20.0)
  end
  begin
     id 6 
     name rhipjoint
     direction -0.540087 -0.762838 0.355506   
     length 2.4099  
     axis 0 0 0  XYZ 
  end
  begin
     id 7 
     name rfemur
     direction -0.34202 -0.939693 0   
     length 7.70794   
     axis 0 0 -20   XYZ
    dof rx ry rz
    limits (-160.0 20.0)
           (-70.0 70.0)
           (-70.0 60.0)
  end
  begin
     id 8 
     name rtibia
     direction -0.34202 -0.939693 0   
     length 7.66106   
     axis 0 0 -20   XYZ
    dof rx
    limits (-10.0 170.0)
 end
 begin
     id 9 
     name rfoot
     direction -0.0830975 -0.228308 0.970036   
     length 2.4989  
     axis -90 -7.62852e-016 -20   XYZ
    dof rx rz
    limits (-45.0 90.0)
           (-20.0 70.0)
  end
  begin
     id 10 
     name rtoes
     direction -1.53517e-011 -4.21842e-011 1   
     length 1.2498   
     axis -90 -7.62852e-016 -20   XYZ
    dof rx
    limits (-90.0 20.0)
  end
  begin
     id 11 
     name lowerback
     direction 0.0266356 0.99402 -0.105896   
     length 2.1545   
     axis 0 0 0   XYZ
    dof rx ry rz
    limits (-20.0 45.0)
           (-30.0 30.0)
           (-30.0 30.0)
  end
  begin
     id 12 
     name upperback
     direction 0.0130547 0.999192 0.0380027   
     length 2.1434   
     axis 0 0 0   XYZ
    dof rx ry rz
    limits (-20.0 45.0)
           (-30.0 30.0)
           (-30.0 30.0)
  end
  begin
     id 13 
     name thorax
     direction 0.000590299 0.996288 0.0860764   
     length 2.19049   
     axis 0 0 0   XYZ
    dof rx ry rz
    limits (-20.0 45.0)
           (-30.0 30.0)
           (-30.0 30.0)
  end
  begin
     id 14 
     name lowerneck
     direction -0.0432125 0.978219 0.203028   
     length 1.62441   
     axis 0 0 0   XYZ
    dof rx ry rz
    limits (-20.0 45.0)
           (-30.0 30.0)
           (-30.0 30.0)
  end
  begin
     id 15 
     name upperneck
     direction -0.0192309 0.991699 -0.127138   
     length 1.66666   
     axis 0 0 0   XYZ
    dof rx ry rz
    limits (-20.0 45.0)
           (-30.0 30.0)
           (-30.0 30.0)
  end
  begin
     id 16
     name head
     direction -0.00434499 0.997882 -0.0649107  
     length 1.67142  
     axis 0 0 0   XYZ
    dof rx ry rz
    limits (-20.0 45.0)
           (-30.0 30.0)
           (-30.0 30.0)
  end
  begin
     id 17 
     name lclavicle
     direction 0.970351 0.240904 -0.0196058  
     length 4.04862  
     axis 0 0 0   XYZ
    dof ry rz
    limits (-20.0 10.0)
           (0.0 20.0)
  end
  begin
     id 18 
     name lhumerus
     direction 1 -4.4896e-011 -1.40911e-018   
     length 5.58345   
     axis 180 -30 -90   XYZ
    dof rx ry rz
    limits (-60.0 90.0)
           (-90.0 90.0)
           (-90.0 90.0)
  end
  begin
     id 19
     name lradius
     direction 1 -4.48968e-011 5.88912e-028   
     length 3.71087   
     axis 180 -30 -90   XYZ
    dof rx
    limits (-10.0 170.0)
  end
  begin
     id 20
     name lwrist
     direction 1 -4.48955e-011 -8.83775e-028   
     length 1.85544   
     axis 5.52448e-016 90 90   XYZ
    dof ry
    limits (-180.0 0.0)
 end
  begin
     id 21 
     name lhand
     direction 1 -4.49035e-011 -1.76755e-027   
     length 0.562322   
     axis 1.12785e-015 90 90   XYZ
    dof rx rz
    limits (-90.0 90.0)
           (-45.0 45.0)
  end
  begin
     id 22 
     name lfingers
     direction 1 -4.48824e-011 -3.5351e-027   
     length 0.453359   
     axis 2.2557e-015 90 90   XYZ
    dof rx
    limits (0.0 90.0)
  end
  begin
     id 23
     name lthumb
     direction 0.707107 -6.34888e-011 0.707107   
     length 0.650935   
     axis -90 45 2.85299e-015   XYZ
    dof rx rz
    limits (-45.0 45.0)
           (-45.0 45.0)
  end
  begin
     id 24 
     name rclavicle
     direction -0.96165 0.268562 -0.0557131   
     length 4.05446  
     axis 0 0 0   XYZ 
    dof ry rz
    limits (-10.0 20.0)
           (-20.0 0.0)
  end
  begin
     id 25 
     name rhumerus
     direction -1 -4.48957e-011 -3.36329e-027  
     length 5.20357   
     axis 180 30 90   XYZ
    dof rx ry rz
    limits (-90.0 60.0)
           (-90.0 90.0)
           (-90.0 90.0)
  end
  begin
     id 26 
     name rradius
     direction -1 -4.48974e-011 4.51441e-027   
     length 3.64937   
     axis 180 30 90   XYZ
    dof rx
    limits (-10.0 170.0)
  end
  begin
     id 27 
     name rwrist
     direction -1 -4.4896e-011 -8.83775e-028   
     length 1.82468   
     axis 5.52448e-016 -90 -90   XYZ
    dof ry
    limits (-180.0 0.0)
  end
  begin
     id 28
     name rhand
     direction -1 -4.48996e-011 -1.76755e-027   
     length 0.617996   
     axis 1.12785e-015 -90 -90   XYZ
    dof rx rz
    limits (-90.0 90.0)
           (-45.0 45.0)
  end
  begin
     id 29
     name rfingers
     direction -1 -4.48957e-011 -3.5351e-027   
     length 0.498244   
     axis 2.2557e-015 -90 -90   XYZ
    dof rx
    limits (0.0 90.0)
  end
  begin
     id 30
     name rthumb
     direction -0.707107 -6.34931e-011 0.707107   
     length 0.715382   
     axis -90 -45 -2.85299e-015   XYZ
    dof rx rz
    limits (-45.0 45.0)
           (-45.0 45.0)
  end
:hierarchy
  begin
    root lhipjoint rhipjoint lowerback
    lhipjoint lfemur
    lfemur ltibia
    ltibia lfoot
    lfoot ltoes
    rhipjoint rfemur
    rfemur rtibia
    rtibia rfoot
    rfoot rtoes
    lowerback upperback
    upperback thorax
    thorax lowerneck lclavicle rclavicle
    lowerneck upperneck
    upperneck head
    lclavicle lhumerus
    lhumerus lradius
    lradius lwrist
    lwrist lhand lthumb
    lhand lfingers
    rclavicle rhumerus
    rhumerus rradius
    rradius rwrist
    rwrist rhand rthumb
    rhand rfingers
  end

#!OML:ASF H:\ManfredETheater\Project 1\Capture day 2\Session 1\Male1.ASF
:FULLY-SPECIFIED
:DEGREES
148
root 2.17468 15.8796 23.6682 25.0921 7.74079 3.35544
lowerback 14.7086 -2.18387 -2.26073
upperback -1.31694 -3.15475 1.58989
thorax -9.48329 -1.34479 3.70605
lowerneck -25.6806 -0.76308 -1.7821
upperneck 8.54737 -0.308647 -0.779274
head 6.68302 -0.291065 -0.0159923
rclavicle -6.55989e-015 -1.33186e-014
rhumerus -58.0503 4.00847 -84.0807
rradius 58.3524
rwrist -10.5641
rhand -37.1698 -4.37327
rfingers 7.12502
rthumb -10.2385 -34.1041
lclavicle -6.55989e-015 -1.33186e-014
lhumerus -17.0754 -15.6422 91.2291
lradius 114.932
lwrist 14.2974
lhand -25.3628 -4.74162
lfingers 7.12502
lthumb 1.16121 25.235
rfemur -73.8504 -13.5825 28.8041
rtibia 86.7796
rfoot -25.5137 -3.66749
rtoes -21.6612
lfemur 2.13055 -2.71355 -23.6514
ltibia 16.962
lfoot -30.5603 -13.7689
ltoes 6.34569
149
root 2.18345 15.8182 23.9197 25.3655 8.44861 3.24513
lowerback 15.1439 -2.39106 -1.57158
upperback -1.32445 -3.28533 1.83211
thorax -9.75539 -1.42737 3.63414
lowerneck -25.7064 -0.790807 -1.89286
upperneck 8.28132 -0.284749 -0.957148
head 6.59882 -0.298633 -0.0539801
rclavicle 1.59028e-015 -3.18055e-015
rhumerus -60.9472 4.76255 -84.253
rradius 61.04
rwrist -11.182
rhand -37.3559 -3.52554
rfingers 7.12502
rthumb -10.418 -33.2474
lclavicle 1.59028e-015 -3.18055e-015
lhumerus -15.8712 -15.9437 91.0889
lradius 118.331
lwrist 13.4356
lhand -25.8218 -5.61917
lfingers 7.12502
lthumb 0.717842 24.3594
rfemur -74.9667 -14.129 29.6799
rtibia 86.5181
rfoot -25.3076 -3.35281
rtoes -21.5663
lfemur 3.1949 -3.03328 -23.0727
ltibia 16.0856
lfoot -29.8467 -14.4739
ltoes 6.29925
150
root 2.19613 15.7492 24.1742 25.8192 9.05916 3.01416
lowerback 15.3037 -2.56095 -0.755528
upperback -1.3661 -3.33044 2.12006
thorax -9.91952 -1.47864 3.50777
lowerneck -25.7677 -0.803096 -2.0497
upperneck 8.06912 -0.212074 -1.21594
head 6.53799 -0.292261 -0.105514
rclavicle -3.12092e-014 4.77083e-015
rhumerus -63.7747 5.54321 -84.4289
rradius 63.6808
rwrist -11.8085
rhand -37.6231 -2.99243
rfingers 7.12502
rthumb -10.6757 -32.7012
lclavicle -3.12092e-014 4.77083e-015
lhumerus -14.7296 -16.4092 90.9044
lradius 121.572
lwrist 12.1423
lhand -26.4971 -5.95116
lfingers 7.12502
lthumb 0.0656773 24.0286
rfemur -76.1446 -14.5081 30.7032
rtibia 86.271
rfoot -24.7948 -3.23468
rtoes -22.0294
lfemur 4.01404 -3.76935 -22.5256
ltibia 15.2828
lfoot -29.0011 -14.4903
ltoes 5.66612
151
root 2.20639 15.6781 24.4401 26.0982 9.44064 2.72181
lowerback 15.5154 -2.66413 -0.0719283
upperback -1.37183 -3.30631 2.41355
thorax -10.0711 -1.49064 3.44903
lowerneck -25.6577 -0.764171 -2.17722
upperneck 7.82883 -0.0880176 -1.47306
head 6.44258 -0.258272 -0.15385
rclavicle 1.0794e-013 -1.59028e-014
rhumerus -66.5328 6.29282 -84.6747
rradius 66.1213
rwrist -12.3352
rhand -38.0427 -2.80814
rfingers 7.12502
rthumb -11.0804 -32.4956
lclavicle 1.0794e-013 -1.59028e-014
lhumerus -13.882 -16.857 90.5863
lradius 124.61
lwrist 10.5404
lhand -26.9911 -6.16009
lfingers 7.12502
lthumb -0.411493 23.8193
rfemur -76.8685 -14.6202 31.5984
rtibia 86.0815
rfoot -24.043 -3.32848
rtoes -22.3694
lfemur 5.06404 -4.50368 -22.0451
ltibia 14.4607
lfoot -27.9034 -14.2743
ltoes 5.28435
152
root 2.21576 15.6154 24.72 26.2906 9.90464 2.27006
lowerback 15.7565 -2.81379 0.771425
upperback -1.40569 -3.30057 2.77327
thorax -10.2761 -1.51742 3.3813
lowerneck -25.4827 -0.717964 -2.3968
upperneck 7.6667 0.0550122 -1.6034
head 6.36342 -0.206084 -0.143459
rclavicle 1.76918e-014 -3.97569e-016
rhumerus -69.2524 7.03251 -84.9716
rradius 68.336
rwrist -12.9919
rhand -38.6609 -2.42645
rfingers 7.12502
rthumb -11.6767 -32.0811
lclavicle 1.76918e-014 -3.97569e-016
lhumerus -13.3693 -17.024 90.1388
lradius 127.408
lwrist 10.1485
lhand -26.9194 -8.3721
lfingers 7.12502
lthumb -0.342265 21.6074
rfemur -77.1968 -14.7587 32.638
rtibia 85.9083
rfoot -23.231 -3.40125
rtoes -21.8815
lfemur 6.08948 -5.2977 -21.3895
ltibia 13.8465
lfoot -26.8004 -14.1696
ltoes 4.12391
153
root 2.22547 15.5635 25.0023 26.3791 10.1807 1.91917
lowerback 16.0621 -2.89758 1.39191
upperback -1.29299 -3.24533 3.12841
thorax -10.3452 -1.51137 3.42
lowerneck -25.418 -0.675307 -2.61868
upperneck 7.39198 0.202564 -1.796
head 6.26382 -0.155792 -0.152998
rclavicle -3.57812e-015 8.74653e-015
rhumerus -71.5459 7.73511 -85.1708
rradius 70.2443
rwrist -13.7212
rhand -38.9288 -2.19885
rfingers 7.12502
rthumb -11.935 -31.8386
lclavicle -3.57812e-015 8.74653e-015
lhumerus -13.0435 -17.6992 89.735
lradius 129.983
lwrist 8.4475
lhand -27.4122 -8.18129
lfingers 7.12502
lthumb -0.818212 21.7969
rfemur -77.0626 -14.8268 33.419
rtibia 85.7437
rfoot -22.2476 -3.68413
rtoes -21.5606
lfemur 7.13422 -6.18961 -20.9819
ltibia 13.377
lfoot -25.4273 -13.5967
ltoes 2.53282
154
root 2.23537 15.5096 25.2987 26.4146 10.3447 1.40434
lowerback 16.3903 -2.95375 2.10975
upperback -1.23898 -3.12805 3.47247
thorax -10.5012 -1.48027 3.38225
lowerneck -25.2642 -0.610428 -2.78877
upperneck 7.1685 0.357812 -1.98044
head 6.16814 -0.0987082 -0.166946
rclavicle -2.94201e-014 2.5842e-014
rhumerus -73.5909 8.12961 -85.3476
rradius 71.6428
rwrist -14.1563
rhand -39.0181 -1.53888
rfingers 7.12502
rthumb -12.0211 -31.1736
lclavicle -2.94201e-014 2.5842e-014
lhumerus -13.2227 -18.3532 89.2781
lradius 132.414
lwrist 7.96128
lhand -27.157 -8.45852
lfingers 7.12502
lthumb -0.571676 21.5205
rfemur -76.562 -14.7675 34.2545
rtibia 85.676
rfoot -21.2551 -4.07966
rtoes -20.4665
lfemur 8.20024 -6.94985 -20.5001
ltibia 13.184
lfoot -24.098 -12.7907
ltoes -0.530181
